<svg width="25" height="24" viewBox="0 0 25 24" xmlns="http://www.w3.org/2000/svg">
    <g fill="none" fill-rule="evenodd">
        <path fill="none" d="M.75 0h24v24h-24z"/>
        <path d="M16.93 4a3 3 0 0 1 2.867 2.114l.048.172.518 2.121a49.99 49.99 0 0 0 1.471-.25l.72-.138.392 1.962c-.439.087-.879.17-1.32.246l-.109-.151a6 6 0 0 1 1.226 3.362l.007.281V20h-2v-6.28a4 4 0 0 0-.683-2.236l-.139-.194-.553-.724a51.99 51.99 0 0 1-13.313-.008l-.542.741a4 4 0 0 0-.762 2.106l-.008.254V20h-2v-6.341a6 6 0 0 1 .988-3.299l.098-.14-.56-.1-.722-.14.392-1.96c.728.145 1.46.274 2.192.387l.035-.075.039-.119.514-1.97A3 3 0 0 1 8.45 4.005L8.63 4h8.302zm-.062 13a2 2 0 0 1 1.995 1.85l.005.15v1h-2v-1H8.741v1h-2v-1a2 2 0 0 1 1.851-1.995l.15-.005h8.126zM9.75 13v2h-3v-2h3zm9 0v2h-3v-2h3zm-1.82-7H8.63a1 1 0 0 0-.93.63l-.038.118-.503 1.928a49.99 49.99 0 0 0 11.213-.003l-.469-1.91a1 1 0 0 0-.858-.757L16.931 6z" fill="#222"/>
    </g>
</svg>
