<svg width="25" height="25" viewBox="0 0 25 25" xmlns="http://www.w3.org/2000/svg">
    <g fill="none" fill-rule="evenodd">
        <path fill="none" d="M.75.172h24v24h-24z"/>
        <path d="M22.45 5.172a1.3 1.3 0 0 1 1.293 1.167l.007.133v8.4a1.3 1.3 0 0 1-1.167 1.294l-.133.006h-2.7v1.7a1.3 1.3 0 0 1-1.167 1.294l-.133.006H3.05a1.3 1.3 0 0 1-1.293-1.167l-.007-.133v-7.4A1.3 1.3 0 0 1 2.917 9.18l.133-.007h1.7v-2.7A1.3 1.3 0 0 1 5.917 5.18l.133-.007h16.4zm-4.7 6h-14v6h14v-6zm-7 .75a2.25 2.25 0 1 1 0 4.5 2.25 2.25 0 0 1 0-4.5zm4.5 1.25a1 1 0 1 1 0 2 1 1 0 0 1 0-2zm-9 0a1 1 0 1 1 0 2 1 1 0 0 1 0-2zm4.5.25a.75.75 0 1 0 0 1.5.75.75 0 0 0 0-1.5zm11-6.25h-15v2h11.7a1.3 1.3 0 0 1 1.293 1.167l.007.133v3.7h2v-7z" fill="#222"/>
    </g>
</svg>
