<svg width="25" height="25" viewBox="0 0 25 25" xmlns="http://www.w3.org/2000/svg">
    <path d="M14.486 2.324c5.347.943 8.947 5.971 8.157 11.309l-.045.276-1.97-.347a8 8 0 1 0-1.648 3.632l.196-.254 1.606 1.193a10.039 10.039 0 0 1-5.135 3.613 9.961 9.961 0 0 1-4.633.274c-5.44-.959-9.071-6.145-8.112-11.584.959-5.439 6.146-9.07 11.584-8.112zm-.736 5.848v4h3v2h-5v-6h2zm7.293-7.12L23.87 3.88l-1.414 1.414-2.828-2.829 1.414-1.414zm-16.586 0 1.414 1.413-2.828 2.829L1.629 3.88 4.457 1.05z" fill="#222" fill-rule="evenodd"/>
</svg>
