<?xml version="1.0" encoding="utf-8"?>
<!-- Generator: Adobe Illustrator 25.0.0, SVG Export Plug-In . SVG Version: 6.00 Build 0)  -->
<svg version="1.1" id="Layer_1" xmlns="http://www.w3.org/2000/svg" xmlns:xlink="http://www.w3.org/1999/xlink" x="0px" y="0px"
	 viewBox="0 0 171.67 156.68" style="enable-background:new 0 0 171.67 156.68;" xml:space="preserve">
<style type="text/css">
	.st0{fill:#FFFFFF;}
</style>
<path class="st0" d="M133.35,61.02c0,0-0.01-0.01-0.01-0.01c-1.48-1.06-4.36-2.51-9.88-3.82c-1.65-0.39-3.55-0.77-5.71-1.11
	c-2.72-0.44-5.88-0.83-9.52-1.16c-0.17-0.02-0.34-0.03-0.51-0.04c-0.74-1.75-1.5-3.53-2.32-5.41c-0.43-1-0.84-2.02-1.28-3.09
	c-0.05-0.13-0.1-0.26-0.16-0.39c-1.6-3.95-3.28-8-6.19-11.6c-3.23-4-7.47-6.2-11.93-6.2c-4.46,0-8.7,2.2-11.93,6.2
	c-2.91,3.59-4.59,7.65-6.19,11.59c-0.05,0.13-0.11,0.26-0.16,0.4c-0.43,1.07-0.84,2.09-1.28,3.09c-0.81,1.88-1.57,3.66-2.31,5.41
	c-0.17,0.01-0.34,0.03-0.51,0.04c-3.66,0.32-6.81,0.72-9.54,1.16c-2.15,0.35-4.04,0.72-5.69,1.11c-5.52,1.3-8.4,2.75-9.88,3.82
	c-0.01,0.01-0.02,0.01-0.02,0.02c-0.53,0.38-0.8,1.03-0.72,1.68l0.48,3.56c0.73,5.33,1.5,11.59,2.78,18.05
	c0.96,4.87,2.22,9.86,3.95,14.63c0.68,1.88,1.44,3.72,2.28,5.52c5.65,11.38,16.17,19.91,28.83,22.88c3.18,0.75,6.5,1.14,9.91,1.14
	c3.4,0,6.7-0.39,9.87-1.13c12.9-3.01,23.58-11.8,29.17-23.49c0.65-1.43,1.25-2.89,1.8-4.38c3.93-10.58,5.45-22.25,6.7-31.51
	l0.7-5.28C134.15,62.05,133.88,61.4,133.35,61.02z M85.84,54.07c-4.49,0-8.57,0.08-12.27,0.23c0,0,0,0,0,0
	c0.2-0.47,0.4-0.94,0.61-1.42c0.47-1.09,0.92-2.2,1.35-3.28c1-2.48,1.97-4.87,3.18-7c0.56-1,1.18-1.93,1.88-2.8
	c0.91-1.12,2.79-3,5.25-3s4.34,1.88,5.25,3c0.7,0.87,1.32,1.81,1.88,2.8c1.21,2.13,2.18,4.52,3.18,7c0.43,1.07,0.88,2.18,1.35,3.28
	c0.21,0.48,0.41,0.95,0.61,1.42C94.41,54.15,90.33,54.07,85.84,54.07z"/>
</svg>
