<?xml version="1.0" encoding="utf-8"?>
<svg viewBox="395.711 -14.971 195.048 195.48" style="enable-background:new 390 -22 1100 445;" xmlns="http://www.w3.org/2000/svg">
  <g id="XMLID_46_" transform="matrix(1, 0, 0, 1, -780.948853, -126.07827)">
    <g id="XMLID_45_">
      <g id="XMLID_58_">
        <g id="XMLID_59_">
          <path id="XMLID_61_" class="st1" d="M1369.4,182.3c-1.3-29.1-25.2-52.2-54.6-52.2c-16.3,0-31,7.2-41,18.5 c-10-11.3-24.7-18.5-41-18.5c-28.8,0-52.4,22.2-54.5,50.6c-0.1,0.6-0.1,1.4-0.1,2.1v61.7c0,7.6,6.1,13.7,13.7,13.7h0.3 c7.6,0,13.7-6.1,13.7-13.7v-59.7h0.1c0-15,12.2-27.2,27.2-27.2c15,0,27.2,12.2,27.2,27.2h0.1v50.4c0,7.6,6.1,13.7,13.7,13.7h0.3 c7.6,0,13.7-6.1,13.7-13.7v-50.5c0.1-15,12.2-27,27.2-27c15,0,27.2,12.2,27.2,27.2h0.1v59.8c0,7.5,6.1,13.5,13.5,13.5h0.3 c7.5,0,13.5-6.1,13.5-13.5v-61C1369.4,183,1369.4,182.7,1369.4,182.3z" style="fill: rgb(255, 255, 255);"/>
          <path id="XMLID_60_" class="st1" d="M1317.7,263.5c-0.6-1-2.6,1-2.6,1c-7.6,8.2-23.3,13.5-39.6,13.5c-16.3,0-31.9-5.3-39.6-13.5 c0,0-2-2.1-2.6-1c-0.8,1.2,0.4,3.1,0.4,3.1c9.7,14,24.5,20.3,41.8,20.3s32.1-6.3,41.8-20.3 C1317.4,266.6,1318.5,264.7,1317.7,263.5z" style="fill: rgb(255, 255, 255);"/>
        </g>
      </g>
    </g>
  </g>
</svg>